<svg width="12" height="12" viewBox="0 0 12 12" fill="none" xmlns="http://www.w3.org/2000/svg">
<path d="M8.64798 6.39795L4.89798 10.1479C4.79231 10.2536 4.64898 10.313 4.49954 10.313C4.3501 10.313 4.20678 10.2536 4.1011 10.1479C3.99543 10.0423 3.93607 9.89895 3.93607 9.74951C3.93607 9.60007 3.99543 9.45675 4.1011 9.35107L7.45313 5.99998L4.10204 2.64795C4.04972 2.59562 4.00821 2.53351 3.9799 2.46514C3.95158 2.39678 3.937 2.32351 3.937 2.24951C3.937 2.17551 3.95158 2.10224 3.9799 2.03388C4.00821 1.96551 4.04972 1.9034 4.10204 1.85107C4.15437 1.79875 4.21648 1.75724 4.28485 1.72893C4.35321 1.70061 4.42648 1.68604 4.50048 1.68604C4.57448 1.68604 4.64775 1.70061 4.71611 1.72893C4.78448 1.75724 4.84659 1.79875 4.89892 1.85107L8.64892 5.60107C8.70129 5.65339 8.74283 5.71554 8.77114 5.78394C8.79945 5.85235 8.81398 5.92567 8.81389 5.99971C8.8138 6.07374 8.7991 6.14703 8.77063 6.21537C8.74216 6.2837 8.70048 6.34575 8.64798 6.39795Z" fill="black"/>
</svg>
